<mxfile host="app.diagrams.net" agent="Mozilla/5.0 (X11; Linux x86_64) AppleWebKit/537.36 (KHTML, like Gecko) Chrome/129.0.0.0 Safari/537.36" version="24.9.0">
  <diagram name="Page-1" id="f3dhT0BQdbofDqPxmLm9">
    <mxGraphModel dx="546" dy="304" grid="1" gridSize="10" guides="1" tooltips="1" connect="1" arrows="1" fold="1" page="1" pageScale="1" pageWidth="827" pageHeight="1169" math="0" shadow="0">
      <root>
        <mxCell id="0" />
        <mxCell id="1" parent="0" />
        <mxCell id="so0_7bqj_jzqrchsmQh5-1" value="Helper" style="shape=umlActor;verticalLabelPosition=bottom;verticalAlign=top;html=1;outlineConnect=0;" parent="1" vertex="1">
          <mxGeometry x="11" y="570" width="30" height="60" as="geometry" />
        </mxCell>
        <mxCell id="so0_7bqj_jzqrchsmQh5-2" value="In need" style="shape=umlActor;verticalLabelPosition=bottom;verticalAlign=top;html=1;outlineConnect=0;" parent="1" vertex="1">
          <mxGeometry x="11" y="750" width="30" height="60" as="geometry" />
        </mxCell>
        <mxCell id="so0_7bqj_jzqrchsmQh5-3" value="Admin" style="shape=umlActor;verticalLabelPosition=bottom;verticalAlign=top;html=1;outlineConnect=0;" parent="1" vertex="1">
          <mxGeometry x="11" y="930" width="30" height="60" as="geometry" />
        </mxCell>
        <mxCell id="so0_7bqj_jzqrchsmQh5-4" value="S1&lt;div&gt;Authentification&amp;nbsp;&lt;/div&gt;" style="swimlane;whiteSpace=wrap;html=1;startSize=30;" parent="1" vertex="1">
          <mxGeometry x="360" y="440" width="120" height="70" as="geometry" />
        </mxCell>
        <mxCell id="so0_7bqj_jzqrchsmQh5-11" value="POST /login&lt;div&gt;POST /register&lt;/div&gt;" style="text;html=1;align=left;verticalAlign=top;resizable=0;points=[];autosize=1;strokeColor=none;fillColor=none;fontSize=9;" parent="so0_7bqj_jzqrchsmQh5-4" vertex="1">
          <mxGeometry x="10" y="35" width="80" height="40" as="geometry" />
        </mxCell>
        <mxCell id="so0_7bqj_jzqrchsmQh5-5" value="S2&lt;div&gt;&lt;div&gt;Gestion des&amp;nbsp;&lt;/div&gt;&lt;div&gt;utilisateurs&lt;/div&gt;&lt;/div&gt;" style="swimlane;whiteSpace=wrap;html=1;startSize=40;" parent="1" vertex="1">
          <mxGeometry x="360" y="560" width="120" height="80" as="geometry" />
        </mxCell>
        <mxCell id="GvN2-WOXrsFmJhMLQB5Q-1" value="POST /users&lt;div&gt;GET /users/{id}&lt;/div&gt;&lt;div&gt;PUT /users/{id}&lt;/div&gt;" style="text;html=1;align=left;verticalAlign=top;resizable=0;points=[];autosize=1;strokeColor=none;fillColor=none;fontSize=9;" vertex="1" parent="so0_7bqj_jzqrchsmQh5-5">
          <mxGeometry x="10" y="37" width="80" height="50" as="geometry" />
        </mxCell>
        <mxCell id="so0_7bqj_jzqrchsmQh5-6" value="S3&lt;div&gt;&lt;div&gt;Gestion des&amp;nbsp;&lt;/div&gt;&lt;div&gt;demandes&lt;/div&gt;&lt;/div&gt;" style="swimlane;whiteSpace=wrap;html=1;startSize=40;" parent="1" vertex="1">
          <mxGeometry x="360" y="690" width="120" height="80" as="geometry" />
        </mxCell>
        <mxCell id="GvN2-WOXrsFmJhMLQB5Q-2" value="POST /requests&lt;div&gt;GET /requests/{id}&lt;/div&gt;&lt;div&gt;PUT /requests/{id}&lt;/div&gt;" style="text;html=1;align=left;verticalAlign=top;resizable=0;points=[];autosize=1;strokeColor=none;fillColor=none;fontSize=9;" vertex="1" parent="so0_7bqj_jzqrchsmQh5-6">
          <mxGeometry x="10" y="38" width="100" height="50" as="geometry" />
        </mxCell>
        <mxCell id="so0_7bqj_jzqrchsmQh5-7" value="S4&lt;div&gt;&lt;div&gt;Gestion des&amp;nbsp;&lt;/div&gt;&lt;div&gt;affectations&lt;/div&gt;&lt;/div&gt;" style="swimlane;whiteSpace=wrap;html=1;startSize=40;" parent="1" vertex="1">
          <mxGeometry x="360" y="800" width="130" height="70" as="geometry" />
        </mxCell>
        <mxCell id="GvN2-WOXrsFmJhMLQB5Q-3" value="POST /assignments&lt;div&gt;GET /assignements/{id}&lt;/div&gt;" style="text;html=1;align=left;verticalAlign=top;resizable=0;points=[];autosize=1;strokeColor=none;fillColor=none;fontSize=9;" vertex="1" parent="so0_7bqj_jzqrchsmQh5-7">
          <mxGeometry x="10" y="39" width="120" height="40" as="geometry" />
        </mxCell>
        <mxCell id="so0_7bqj_jzqrchsmQh5-8" value="S5&lt;div&gt;&lt;div&gt;Gestion&amp;nbsp;&lt;/div&gt;&lt;div&gt;des retours&lt;/div&gt;&lt;/div&gt;" style="swimlane;whiteSpace=wrap;html=1;startSize=40;" parent="1" vertex="1">
          <mxGeometry x="360" y="920" width="130" height="70" as="geometry" />
        </mxCell>
        <mxCell id="GvN2-WOXrsFmJhMLQB5Q-4" value="POST /feedback&lt;div&gt;GET /feedback/{id}&lt;/div&gt;" style="text;html=1;align=left;verticalAlign=top;resizable=0;points=[];autosize=1;strokeColor=none;fillColor=none;fontSize=9;" vertex="1" parent="so0_7bqj_jzqrchsmQh5-8">
          <mxGeometry x="10" y="37" width="100" height="40" as="geometry" />
        </mxCell>
        <mxCell id="so0_7bqj_jzqrchsmQh5-10" value="" style="shape=datastore;whiteSpace=wrap;html=1;" parent="1" vertex="1">
          <mxGeometry x="740" y="750" width="60" height="60" as="geometry" />
        </mxCell>
        <mxCell id="so0_7bqj_jzqrchsmQh5-17" value="" style="endArrow=classic;html=1;rounded=0;entryX=0;entryY=0.5;entryDx=0;entryDy=0;exitX=1;exitY=0.3333333333333333;exitDx=0;exitDy=0;exitPerimeter=0;jumpStyle=gap;jumpSize=7;" parent="1" source="so0_7bqj_jzqrchsmQh5-1" target="so0_7bqj_jzqrchsmQh5-4" edge="1">
          <mxGeometry width="50" height="50" relative="1" as="geometry">
            <mxPoint x="210" y="600" as="sourcePoint" />
            <mxPoint x="300" y="520" as="targetPoint" />
          </mxGeometry>
        </mxCell>
        <mxCell id="so0_7bqj_jzqrchsmQh5-18" value="auth" style="edgeLabel;html=1;align=center;verticalAlign=middle;resizable=0;points=[];" parent="so0_7bqj_jzqrchsmQh5-17" vertex="1" connectable="0">
          <mxGeometry x="0.0673" y="1" relative="1" as="geometry">
            <mxPoint as="offset" />
          </mxGeometry>
        </mxCell>
        <mxCell id="so0_7bqj_jzqrchsmQh5-19" value="" style="endArrow=classic;html=1;rounded=0;entryX=0;entryY=0.5;entryDx=0;entryDy=0;exitX=1;exitY=0.3333333333333333;exitDx=0;exitDy=0;exitPerimeter=0;jumpStyle=gap;jumpSize=7;" parent="1" source="so0_7bqj_jzqrchsmQh5-1" target="so0_7bqj_jzqrchsmQh5-5" edge="1">
          <mxGeometry width="50" height="50" relative="1" as="geometry">
            <mxPoint x="220" y="610" as="sourcePoint" />
            <mxPoint x="370" y="490" as="targetPoint" />
          </mxGeometry>
        </mxCell>
        <mxCell id="so0_7bqj_jzqrchsmQh5-20" value="ask" style="edgeLabel;html=1;align=center;verticalAlign=middle;resizable=0;points=[];" parent="so0_7bqj_jzqrchsmQh5-19" vertex="1" connectable="0">
          <mxGeometry x="0.0673" y="1" relative="1" as="geometry">
            <mxPoint x="-56" y="-1" as="offset" />
          </mxGeometry>
        </mxCell>
        <mxCell id="so0_7bqj_jzqrchsmQh5-21" value="" style="endArrow=classic;html=1;rounded=0;entryX=0;entryY=0.5;entryDx=0;entryDy=0;exitX=1;exitY=0.3333333333333333;exitDx=0;exitDy=0;exitPerimeter=0;jumpStyle=gap;jumpSize=7;" parent="1" source="so0_7bqj_jzqrchsmQh5-1" target="so0_7bqj_jzqrchsmQh5-6" edge="1">
          <mxGeometry width="50" height="50" relative="1" as="geometry">
            <mxPoint x="200" y="600" as="sourcePoint" />
            <mxPoint x="370" y="610" as="targetPoint" />
          </mxGeometry>
        </mxCell>
        <mxCell id="so0_7bqj_jzqrchsmQh5-22" value="ask" style="edgeLabel;html=1;align=center;verticalAlign=middle;resizable=0;points=[];" parent="so0_7bqj_jzqrchsmQh5-21" vertex="1" connectable="0">
          <mxGeometry x="0.0673" y="1" relative="1" as="geometry">
            <mxPoint x="-72" y="-29" as="offset" />
          </mxGeometry>
        </mxCell>
        <mxCell id="so0_7bqj_jzqrchsmQh5-23" value="" style="endArrow=none;html=1;rounded=0;entryX=0;entryY=0.5;entryDx=0;entryDy=0;exitX=1;exitY=0.3333333333333333;exitDx=0;exitDy=0;exitPerimeter=0;jumpStyle=gap;jumpSize=7;endFill=0;startArrow=classic;startFill=1;" parent="1" source="so0_7bqj_jzqrchsmQh5-1" target="so0_7bqj_jzqrchsmQh5-7" edge="1">
          <mxGeometry width="50" height="50" relative="1" as="geometry">
            <mxPoint x="180" y="630" as="sourcePoint" />
            <mxPoint x="350" y="760" as="targetPoint" />
          </mxGeometry>
        </mxCell>
        <mxCell id="so0_7bqj_jzqrchsmQh5-24" value="give" style="edgeLabel;html=1;align=center;verticalAlign=middle;resizable=0;points=[];" parent="so0_7bqj_jzqrchsmQh5-23" vertex="1" connectable="0">
          <mxGeometry x="0.0673" y="1" relative="1" as="geometry">
            <mxPoint x="98" y="77" as="offset" />
          </mxGeometry>
        </mxCell>
        <mxCell id="so0_7bqj_jzqrchsmQh5-25" value="" style="endArrow=classic;html=1;rounded=0;entryX=0;entryY=0.5;entryDx=0;entryDy=0;exitX=1;exitY=0.3333333333333333;exitDx=0;exitDy=0;exitPerimeter=0;jumpStyle=gap;jumpSize=7;endFill=1;startArrow=classic;startFill=1;" parent="1" source="so0_7bqj_jzqrchsmQh5-1" target="so0_7bqj_jzqrchsmQh5-8" edge="1">
          <mxGeometry width="50" height="50" relative="1" as="geometry">
            <mxPoint x="200" y="640" as="sourcePoint" />
            <mxPoint x="370" y="890" as="targetPoint" />
          </mxGeometry>
        </mxCell>
        <mxCell id="so0_7bqj_jzqrchsmQh5-26" value="give/ask" style="edgeLabel;html=1;align=center;verticalAlign=middle;resizable=0;points=[];" parent="so0_7bqj_jzqrchsmQh5-25" vertex="1" connectable="0">
          <mxGeometry x="0.0673" y="1" relative="1" as="geometry">
            <mxPoint x="58" y="73" as="offset" />
          </mxGeometry>
        </mxCell>
        <mxCell id="so0_7bqj_jzqrchsmQh5-27" value="" style="endArrow=classic;html=1;rounded=0;entryX=0;entryY=0.5;entryDx=0;entryDy=0;exitX=1;exitY=0.3333333333333333;exitDx=0;exitDy=0;exitPerimeter=0;jumpStyle=gap;jumpSize=7;" parent="1" source="so0_7bqj_jzqrchsmQh5-2" target="so0_7bqj_jzqrchsmQh5-4" edge="1">
          <mxGeometry width="50" height="50" relative="1" as="geometry">
            <mxPoint x="190" y="775" as="sourcePoint" />
            <mxPoint x="360" y="785" as="targetPoint" />
          </mxGeometry>
        </mxCell>
        <mxCell id="so0_7bqj_jzqrchsmQh5-28" value="auth" style="edgeLabel;html=1;align=center;verticalAlign=middle;resizable=0;points=[];" parent="so0_7bqj_jzqrchsmQh5-27" vertex="1" connectable="0">
          <mxGeometry x="0.0673" y="1" relative="1" as="geometry">
            <mxPoint x="49" y="-44" as="offset" />
          </mxGeometry>
        </mxCell>
        <mxCell id="so0_7bqj_jzqrchsmQh5-29" value="" style="endArrow=classic;html=1;rounded=0;entryX=0;entryY=0.5;entryDx=0;entryDy=0;exitX=1;exitY=0.3333333333333333;exitDx=0;exitDy=0;exitPerimeter=0;jumpStyle=gap;jumpSize=7;" parent="1" source="so0_7bqj_jzqrchsmQh5-2" target="so0_7bqj_jzqrchsmQh5-5" edge="1">
          <mxGeometry width="50" height="50" relative="1" as="geometry">
            <mxPoint x="200" y="780" as="sourcePoint" />
            <mxPoint x="370" y="490" as="targetPoint" />
          </mxGeometry>
        </mxCell>
        <mxCell id="so0_7bqj_jzqrchsmQh5-30" value="ask" style="edgeLabel;html=1;align=center;verticalAlign=middle;resizable=0;points=[];" parent="so0_7bqj_jzqrchsmQh5-29" vertex="1" connectable="0">
          <mxGeometry x="0.0673" y="1" relative="1" as="geometry">
            <mxPoint x="69" y="-38" as="offset" />
          </mxGeometry>
        </mxCell>
        <mxCell id="so0_7bqj_jzqrchsmQh5-31" value="" style="endArrow=classic;html=1;rounded=0;entryX=0;entryY=0.5;entryDx=0;entryDy=0;exitX=1;exitY=0.3333333333333333;exitDx=0;exitDy=0;exitPerimeter=0;jumpStyle=gap;jumpSize=7;" parent="1" source="so0_7bqj_jzqrchsmQh5-2" target="so0_7bqj_jzqrchsmQh5-6" edge="1">
          <mxGeometry width="50" height="50" relative="1" as="geometry">
            <mxPoint x="200" y="780" as="sourcePoint" />
            <mxPoint x="370" y="610" as="targetPoint" />
          </mxGeometry>
        </mxCell>
        <mxCell id="so0_7bqj_jzqrchsmQh5-32" value="ask" style="edgeLabel;html=1;align=center;verticalAlign=middle;resizable=0;points=[];" parent="so0_7bqj_jzqrchsmQh5-31" vertex="1" connectable="0">
          <mxGeometry x="0.0673" y="1" relative="1" as="geometry">
            <mxPoint x="89" y="-13" as="offset" />
          </mxGeometry>
        </mxCell>
        <mxCell id="so0_7bqj_jzqrchsmQh5-33" value="" style="endArrow=classic;html=1;rounded=0;entryX=0;entryY=0.5;entryDx=0;entryDy=0;exitX=1;exitY=0.3333333333333333;exitDx=0;exitDy=0;exitPerimeter=0;jumpStyle=gap;jumpSize=7;" parent="1" source="so0_7bqj_jzqrchsmQh5-3" target="so0_7bqj_jzqrchsmQh5-4" edge="1">
          <mxGeometry width="50" height="50" relative="1" as="geometry">
            <mxPoint x="210" y="990" as="sourcePoint" />
            <mxPoint x="380" y="940" as="targetPoint" />
          </mxGeometry>
        </mxCell>
        <mxCell id="so0_7bqj_jzqrchsmQh5-34" value="auth" style="edgeLabel;html=1;align=center;verticalAlign=middle;resizable=0;points=[];" parent="so0_7bqj_jzqrchsmQh5-33" vertex="1" connectable="0">
          <mxGeometry x="0.0673" y="1" relative="1" as="geometry">
            <mxPoint x="-61" y="88" as="offset" />
          </mxGeometry>
        </mxCell>
        <mxCell id="so0_7bqj_jzqrchsmQh5-36" value="" style="endArrow=classic;html=1;rounded=0;entryX=0;entryY=0.5;entryDx=0;entryDy=0;exitX=1;exitY=0.3333333333333333;exitDx=0;exitDy=0;exitPerimeter=0;jumpStyle=gap;jumpSize=7;" parent="1" source="so0_7bqj_jzqrchsmQh5-3" target="so0_7bqj_jzqrchsmQh5-5" edge="1">
          <mxGeometry width="50" height="50" relative="1" as="geometry">
            <mxPoint x="200" y="960" as="sourcePoint" />
            <mxPoint x="370" y="490" as="targetPoint" />
          </mxGeometry>
        </mxCell>
        <mxCell id="so0_7bqj_jzqrchsmQh5-37" value="ask/valid" style="edgeLabel;html=1;align=center;verticalAlign=middle;resizable=0;points=[];" parent="so0_7bqj_jzqrchsmQh5-36" vertex="1" connectable="0">
          <mxGeometry x="0.0673" y="1" relative="1" as="geometry">
            <mxPoint x="-80" y="92" as="offset" />
          </mxGeometry>
        </mxCell>
        <mxCell id="so0_7bqj_jzqrchsmQh5-40" value="" style="endArrow=classic;html=1;rounded=0;entryX=0;entryY=0.5;entryDx=0;entryDy=0;exitX=1;exitY=0.5;exitDx=0;exitDy=0;jumpStyle=gap;jumpSize=7;" parent="1" source="so0_7bqj_jzqrchsmQh5-4" target="so0_7bqj_jzqrchsmQh5-10" edge="1">
          <mxGeometry width="50" height="50" relative="1" as="geometry">
            <mxPoint x="590" y="640" as="sourcePoint" />
            <mxPoint x="760" y="530" as="targetPoint" />
          </mxGeometry>
        </mxCell>
        <mxCell id="so0_7bqj_jzqrchsmQh5-41" value="ask user table" style="edgeLabel;html=1;align=center;verticalAlign=middle;resizable=0;points=[];" parent="so0_7bqj_jzqrchsmQh5-40" vertex="1" connectable="0">
          <mxGeometry x="0.0673" y="1" relative="1" as="geometry">
            <mxPoint as="offset" />
          </mxGeometry>
        </mxCell>
        <mxCell id="so0_7bqj_jzqrchsmQh5-42" value="" style="endArrow=classic;html=1;rounded=0;entryX=0;entryY=0.5;entryDx=0;entryDy=0;exitX=1;exitY=0.5;exitDx=0;exitDy=0;jumpStyle=gap;jumpSize=7;" parent="1" source="so0_7bqj_jzqrchsmQh5-5" target="so0_7bqj_jzqrchsmQh5-10" edge="1">
          <mxGeometry width="50" height="50" relative="1" as="geometry">
            <mxPoint x="530" y="680" as="sourcePoint" />
            <mxPoint x="730" y="980" as="targetPoint" />
          </mxGeometry>
        </mxCell>
        <mxCell id="so0_7bqj_jzqrchsmQh5-43" value="add/delete to&lt;div&gt;&amp;nbsp;user table&lt;/div&gt;" style="edgeLabel;html=1;align=center;verticalAlign=middle;resizable=0;points=[];" parent="so0_7bqj_jzqrchsmQh5-42" vertex="1" connectable="0">
          <mxGeometry x="0.0673" y="1" relative="1" as="geometry">
            <mxPoint as="offset" />
          </mxGeometry>
        </mxCell>
        <mxCell id="so0_7bqj_jzqrchsmQh5-44" value="" style="endArrow=classic;html=1;rounded=0;entryX=0;entryY=0.5;entryDx=0;entryDy=0;exitX=1;exitY=0.5;exitDx=0;exitDy=0;jumpStyle=gap;jumpSize=7;" parent="1" source="so0_7bqj_jzqrchsmQh5-6" target="so0_7bqj_jzqrchsmQh5-10" edge="1">
          <mxGeometry width="50" height="50" relative="1" as="geometry">
            <mxPoint x="490" y="610" as="sourcePoint" />
            <mxPoint x="690" y="790" as="targetPoint" />
          </mxGeometry>
        </mxCell>
        <mxCell id="so0_7bqj_jzqrchsmQh5-45" value="add to request" style="edgeLabel;html=1;align=center;verticalAlign=middle;resizable=0;points=[];" parent="so0_7bqj_jzqrchsmQh5-44" vertex="1" connectable="0">
          <mxGeometry x="0.0673" y="1" relative="1" as="geometry">
            <mxPoint as="offset" />
          </mxGeometry>
        </mxCell>
        <mxCell id="so0_7bqj_jzqrchsmQh5-46" value="" style="endArrow=none;html=1;rounded=0;entryX=0;entryY=0.5;entryDx=0;entryDy=0;exitX=1;exitY=0.5;exitDx=0;exitDy=0;jumpStyle=gap;jumpSize=7;endFill=0;startArrow=classic;startFill=1;" parent="1" source="so0_7bqj_jzqrchsmQh5-7" target="so0_7bqj_jzqrchsmQh5-10" edge="1">
          <mxGeometry width="50" height="50" relative="1" as="geometry">
            <mxPoint x="490" y="730" as="sourcePoint" />
            <mxPoint x="690" y="790" as="targetPoint" />
          </mxGeometry>
        </mxCell>
        <mxCell id="so0_7bqj_jzqrchsmQh5-48" value="" style="endArrow=classic;html=1;rounded=0;entryX=0;entryY=0.5;entryDx=0;entryDy=0;jumpStyle=gap;jumpSize=7;exitX=1;exitY=0.5;exitDx=0;exitDy=0;startArrow=classic;startFill=1;" parent="1" source="so0_7bqj_jzqrchsmQh5-8" target="so0_7bqj_jzqrchsmQh5-10" edge="1">
          <mxGeometry width="50" height="50" relative="1" as="geometry">
            <mxPoint x="480" y="970" as="sourcePoint" />
            <mxPoint x="690" y="790" as="targetPoint" />
          </mxGeometry>
        </mxCell>
        <mxCell id="RCO192-_W9GmHNiXjKy--1" value="" style="endArrow=classic;html=1;rounded=0;exitX=1;exitY=0.3333333333333333;exitDx=0;exitDy=0;exitPerimeter=0;jumpStyle=gap;jumpSize=7;entryX=0;entryY=0.5;entryDx=0;entryDy=0;" parent="1" source="so0_7bqj_jzqrchsmQh5-3" target="so0_7bqj_jzqrchsmQh5-6" edge="1">
          <mxGeometry width="50" height="50" relative="1" as="geometry">
            <mxPoint x="51" y="780" as="sourcePoint" />
            <mxPoint x="340" y="690" as="targetPoint" />
          </mxGeometry>
        </mxCell>
        <mxCell id="RCO192-_W9GmHNiXjKy--2" value="valid" style="edgeLabel;html=1;align=center;verticalAlign=middle;resizable=0;points=[];" parent="RCO192-_W9GmHNiXjKy--1" vertex="1" connectable="0">
          <mxGeometry x="0.0673" y="1" relative="1" as="geometry">
            <mxPoint x="-40" y="33" as="offset" />
          </mxGeometry>
        </mxCell>
        <mxCell id="RCO192-_W9GmHNiXjKy--3" value="" style="endArrow=none;html=1;rounded=0;entryX=0;entryY=0.5;entryDx=0;entryDy=0;exitX=1;exitY=0.3333333333333333;exitDx=0;exitDy=0;exitPerimeter=0;jumpStyle=gap;jumpSize=7;endFill=0;startArrow=classic;startFill=1;" parent="1" source="so0_7bqj_jzqrchsmQh5-2" target="so0_7bqj_jzqrchsmQh5-7" edge="1">
          <mxGeometry width="50" height="50" relative="1" as="geometry">
            <mxPoint x="51" y="600" as="sourcePoint" />
            <mxPoint x="370" y="850" as="targetPoint" />
          </mxGeometry>
        </mxCell>
        <mxCell id="RCO192-_W9GmHNiXjKy--4" value="give" style="edgeLabel;html=1;align=center;verticalAlign=middle;resizable=0;points=[];" parent="RCO192-_W9GmHNiXjKy--3" vertex="1" connectable="0">
          <mxGeometry x="0.0673" y="1" relative="1" as="geometry">
            <mxPoint x="78" y="14" as="offset" />
          </mxGeometry>
        </mxCell>
        <mxCell id="RCO192-_W9GmHNiXjKy--5" value="" style="endArrow=classic;html=1;rounded=0;entryX=0;entryY=0.5;entryDx=0;entryDy=0;exitX=1;exitY=0.3333333333333333;exitDx=0;exitDy=0;exitPerimeter=0;jumpStyle=gap;jumpSize=7;endFill=1;startArrow=classic;startFill=1;" parent="1" source="so0_7bqj_jzqrchsmQh5-2" target="so0_7bqj_jzqrchsmQh5-8" edge="1">
          <mxGeometry width="50" height="50" relative="1" as="geometry">
            <mxPoint x="30" y="620" as="sourcePoint" />
            <mxPoint x="349" y="990" as="targetPoint" />
          </mxGeometry>
        </mxCell>
        <mxCell id="RCO192-_W9GmHNiXjKy--6" value="give/ask" style="edgeLabel;html=1;align=center;verticalAlign=middle;resizable=0;points=[];" parent="RCO192-_W9GmHNiXjKy--5" vertex="1" connectable="0">
          <mxGeometry x="0.0673" y="1" relative="1" as="geometry">
            <mxPoint x="48" y="30" as="offset" />
          </mxGeometry>
        </mxCell>
      </root>
    </mxGraphModel>
  </diagram>
</mxfile>
